<mxfile host="app.diagrams.net" modified="2023-11-23T13:21:46.245Z" agent="Mozilla/5.0 (Windows NT 10.0; Win64; x64) AppleWebKit/537.36 (KHTML, like Gecko) Chrome/119.0.0.0 Safari/537.36" etag="nVSf9ISktKS0UD9CByB9" version="22.1.3" type="github">
  <diagram name="Page-1" id="ha88IqlocyOCMubjJZpS">
    <mxGraphModel dx="1434" dy="790" grid="1" gridSize="10" guides="1" tooltips="1" connect="1" arrows="1" fold="1" page="1" pageScale="1" pageWidth="827" pageHeight="1169" background="#ffffff" math="0" shadow="0">
      <root>
        <mxCell id="0" />
        <mxCell id="1" parent="0" />
        <mxCell id="oiJ0RVTIJwRKJXWTDnwv-15" value="" style="whiteSpace=wrap;html=1;aspect=fixed;fillColor=#d5e8d4;strokeColor=#82b366;" parent="1" vertex="1">
          <mxGeometry x="740" y="290" width="340" height="340" as="geometry" />
        </mxCell>
        <mxCell id="oiJ0RVTIJwRKJXWTDnwv-16" value="" style="image;aspect=fixed;perimeter=ellipsePerimeter;html=1;align=center;shadow=0;dashed=0;spacingTop=3;image=img/lib/active_directory/generic_server.svg;" parent="1" vertex="1">
          <mxGeometry x="797.4" y="330" width="44.8" height="80" as="geometry" />
        </mxCell>
        <mxCell id="oiJ0RVTIJwRKJXWTDnwv-17" value="" style="points=[[0.145,0.145,0],[0.5,0,0],[0.855,0.145,0],[1,0.5,0],[0.855,0.855,0],[0.5,1,0],[0.145,0.855,0],[0,0.5,0]];shape=mxgraph.bpmn.event;html=1;verticalLabelPosition=bottom;labelBackgroundColor=#ffffff;verticalAlign=top;align=center;perimeter=ellipsePerimeter;outlineConnect=0;aspect=fixed;outline=standard;symbol=timer;" parent="1" vertex="1">
          <mxGeometry x="835" y="550" width="30" height="30" as="geometry" />
        </mxCell>
        <mxCell id="oiJ0RVTIJwRKJXWTDnwv-19" value="" style="rounded=0;whiteSpace=wrap;html=1;fillColor=#ffe6cc;strokeColor=#d79b00;" parent="1" vertex="1">
          <mxGeometry x="260" y="160" width="320" height="370" as="geometry" />
        </mxCell>
        <mxCell id="oiJ0RVTIJwRKJXWTDnwv-74" value="" style="edgeStyle=orthogonalEdgeStyle;rounded=0;orthogonalLoop=1;jettySize=auto;html=1;" parent="1" source="oiJ0RVTIJwRKJXWTDnwv-20" target="oiJ0RVTIJwRKJXWTDnwv-73" edge="1">
          <mxGeometry relative="1" as="geometry" />
        </mxCell>
        <mxCell id="oiJ0RVTIJwRKJXWTDnwv-20" value="" style="image;aspect=fixed;perimeter=ellipsePerimeter;html=1;align=center;shadow=0;dashed=0;spacingTop=3;image=img/lib/active_directory/generic_server.svg;" parent="1" vertex="1">
          <mxGeometry x="450" y="313.57" width="40" height="71.43" as="geometry" />
        </mxCell>
        <mxCell id="oiJ0RVTIJwRKJXWTDnwv-22" value="" style="rounded=0;whiteSpace=wrap;html=1;fillColor=#647687;fontColor=#ffffff;strokeColor=#314354;" parent="1" vertex="1">
          <mxGeometry y="300" width="110" height="230" as="geometry" />
        </mxCell>
        <mxCell id="oiJ0RVTIJwRKJXWTDnwv-23" value="" style="image;aspect=fixed;perimeter=ellipsePerimeter;html=1;align=center;shadow=0;dashed=0;spacingTop=3;image=img/lib/active_directory/generic_server.svg;" parent="1" vertex="1">
          <mxGeometry x="37.59999999999999" y="330" width="44.8" height="80" as="geometry" />
        </mxCell>
        <mxCell id="oiJ0RVTIJwRKJXWTDnwv-32" value="LAN" style="text;html=1;strokeColor=none;fillColor=none;align=center;verticalAlign=middle;whiteSpace=wrap;rounded=0;" parent="1" vertex="1">
          <mxGeometry x="1020" y="290" width="60" height="30" as="geometry" />
        </mxCell>
        <mxCell id="oiJ0RVTIJwRKJXWTDnwv-33" value="CDE" style="text;html=1;strokeColor=none;fillColor=none;align=center;verticalAlign=middle;whiteSpace=wrap;rounded=0;" parent="1" vertex="1">
          <mxGeometry x="520" y="160" width="60" height="30" as="geometry" />
        </mxCell>
        <mxCell id="oiJ0RVTIJwRKJXWTDnwv-34" value="SSIS&amp;nbsp;" style="text;html=1;strokeColor=none;fillColor=none;align=center;verticalAlign=middle;whiteSpace=wrap;rounded=0;" parent="1" vertex="1">
          <mxGeometry x="778.3" y="600" width="60" height="30" as="geometry" />
        </mxCell>
        <mxCell id="oiJ0RVTIJwRKJXWTDnwv-35" value="PTX" style="text;html=1;strokeColor=none;fillColor=none;align=center;verticalAlign=middle;whiteSpace=wrap;rounded=0;" parent="1" vertex="1">
          <mxGeometry x="50" y="300" width="60" height="30" as="geometry" />
        </mxCell>
        <mxCell id="oiJ0RVTIJwRKJXWTDnwv-39" value="Service Library" style="text;html=1;strokeColor=none;fillColor=none;align=center;verticalAlign=middle;whiteSpace=wrap;rounded=0;" parent="1" vertex="1">
          <mxGeometry x="440" y="376" width="60" height="30" as="geometry" />
        </mxCell>
        <mxCell id="oiJ0RVTIJwRKJXWTDnwv-40" value="Redemption Database" style="text;html=1;strokeColor=none;fillColor=none;align=center;verticalAlign=middle;whiteSpace=wrap;rounded=0;" parent="1" vertex="1">
          <mxGeometry x="827" y="355" width="60" height="30" as="geometry" />
        </mxCell>
        <mxCell id="oiJ0RVTIJwRKJXWTDnwv-43" value="" style="image;sketch=0;aspect=fixed;html=1;points=[];align=center;fontSize=12;image=img/lib/mscae/dep/SQL_Server_Stretch_DB.svg;" parent="1" vertex="1">
          <mxGeometry x="773.3" y="530" width="70" height="70" as="geometry" />
        </mxCell>
        <mxCell id="oiJ0RVTIJwRKJXWTDnwv-46" value="" style="endArrow=classic;startArrow=classic;html=1;rounded=0;" parent="1" source="oiJ0RVTIJwRKJXWTDnwv-43" edge="1">
          <mxGeometry width="50" height="50" relative="1" as="geometry">
            <mxPoint x="760" y="450" as="sourcePoint" />
            <mxPoint x="810" y="400" as="targetPoint" />
          </mxGeometry>
        </mxCell>
        <mxCell id="oiJ0RVTIJwRKJXWTDnwv-53" value="14:30" style="text;html=1;strokeColor=none;fillColor=none;align=center;verticalAlign=middle;whiteSpace=wrap;rounded=0;" parent="1" vertex="1">
          <mxGeometry x="865" y="550" width="60" height="30" as="geometry" />
        </mxCell>
        <mxCell id="oiJ0RVTIJwRKJXWTDnwv-64" value="" style="endArrow=classic;html=1;rounded=0;" parent="1" target="oiJ0RVTIJwRKJXWTDnwv-16" edge="1">
          <mxGeometry width="50" height="50" relative="1" as="geometry">
            <mxPoint x="490" y="340" as="sourcePoint" />
            <mxPoint x="540" y="290" as="targetPoint" />
          </mxGeometry>
        </mxCell>
        <mxCell id="oiJ0RVTIJwRKJXWTDnwv-66" value="" style="endArrow=classic;html=1;rounded=0;entryX=1;entryY=0;entryDx=0;entryDy=0;exitX=0;exitY=0.5;exitDx=0;exitDy=0;" parent="1" source="oiJ0RVTIJwRKJXWTDnwv-20" target="oiJ0RVTIJwRKJXWTDnwv-23" edge="1">
          <mxGeometry width="50" height="50" relative="1" as="geometry">
            <mxPoint x="440" y="350" as="sourcePoint" />
            <mxPoint x="490" y="300" as="targetPoint" />
          </mxGeometry>
        </mxCell>
        <mxCell id="oiJ0RVTIJwRKJXWTDnwv-69" value="CreateRedemptionRecord stored procedure" style="text;html=1;strokeColor=none;fillColor=none;align=center;verticalAlign=middle;whiteSpace=wrap;rounded=0;" parent="1" vertex="1">
          <mxGeometry x="680" y="325" width="60" height="30" as="geometry" />
        </mxCell>
        <mxCell id="oiJ0RVTIJwRKJXWTDnwv-71" value="Verify card" style="text;html=1;strokeColor=none;fillColor=none;align=center;verticalAlign=middle;whiteSpace=wrap;rounded=0;" parent="1" vertex="1">
          <mxGeometry x="190" y="314" width="60" height="30" as="geometry" />
        </mxCell>
        <mxCell id="oiJ0RVTIJwRKJXWTDnwv-73" value="" style="image;aspect=fixed;perimeter=ellipsePerimeter;html=1;align=center;shadow=0;dashed=0;spacingTop=3;image=img/lib/active_directory/generic_server.svg;" parent="1" vertex="1">
          <mxGeometry x="447.59999999999997" y="160" width="44.8" height="80" as="geometry" />
        </mxCell>
        <mxCell id="oiJ0RVTIJwRKJXWTDnwv-75" value="BizTalk" style="text;html=1;strokeColor=none;fillColor=none;align=center;verticalAlign=middle;whiteSpace=wrap;rounded=0;" parent="1" vertex="1">
          <mxGeometry x="480" y="200" width="60" height="30" as="geometry" />
        </mxCell>
        <mxCell id="jkz-DcKc9K8jZKRXaZBp-5" value="Card Unload" style="text;html=1;strokeColor=none;fillColor=none;align=center;verticalAlign=middle;whiteSpace=wrap;rounded=0;" vertex="1" parent="1">
          <mxGeometry x="414" y="260" width="60" height="30" as="geometry" />
        </mxCell>
        <mxCell id="jkz-DcKc9K8jZKRXaZBp-6" value="" style="endArrow=classic;html=1;rounded=0;" edge="1" parent="1" source="oiJ0RVTIJwRKJXWTDnwv-43" target="oiJ0RVTIJwRKJXWTDnwv-23">
          <mxGeometry width="50" height="50" relative="1" as="geometry">
            <mxPoint x="700" y="430" as="sourcePoint" />
            <mxPoint x="750" y="380" as="targetPoint" />
          </mxGeometry>
        </mxCell>
      </root>
    </mxGraphModel>
  </diagram>
</mxfile>
